# xmcd
#
# Track frame offsets: 
#        150
#        15310
#        29181
#        41973
#        55272
#        72397
#        89591
#        105591
#        117857
#        134859
#        148545
#        162697
#        175887
#        192823
#        206136
#        220813
#
# Disc length: 3148 seconds
#
# Revision: 4
# Processed by: cddbd v1.5.2PL0 Copyright (c) Steve Scherf et al.
# Submitted via: ExactAudioCopy v1.0b3
#
DISCID=fd0c4a10
DTITLE=Truck Stop - 35 Jahre Country in Deutschland
DYEAR=2008
DGENRE=Country
TTITLE0=Der Sheriff hat heute Geburtstag (Radio Version)
TTITLE1=Nach Cowboyart
TTITLE2=Hey, mach mal Pause
TTITLE3=Der wilde, wilde Westen
TTITLE4=Heimat ist ueberall
TTITLE5=Damenwahl
TTITLE6=Ich moecht so gern Dave Dudley hoern
TTITLE7=Cisco, Luicius, Erich, Uwe, Teddy und ich
TTITLE8=Eine Gitarre und eine Ukulele
TTITLE9=Bitte erloese uns, Elvis
TTITLE10=Waterkant
TTITLE11=Take It Easy, altes Haus
TTITLE12=Sonst glaub ich's nicht
TTITLE13=Wo ist das Feuer
TTITLE14=Sag Mami Goodbye
TTITLE15=Der Sheriff hat heute Geburtstag (Party Mix)
EXTD=YEAR: 2008
EXTT0=
EXTT1=
EXTT2=
EXTT3=
EXTT4=
EXTT5=
EXTT6=
EXTT7=
EXTT8=
EXTT9=
EXTT10=
EXTT11=
EXTT12=
EXTT13=
EXTT14=
EXTT15=Bonustrack
PLAYORDER=
